<mxfile host="app.diagrams.net" modified="2021-03-12T01:28:34.264Z" agent="5.0 (Macintosh; Intel Mac OS X 10_15_7) AppleWebKit/537.36 (KHTML, like Gecko) Chrome/86.0.4240.193 Safari/537.36" etag="dBcVskdgoTGTVdoNats5" version="14.4.7" type="github">
  <diagram id="57f6tJyZ_dStiLcAbNCw" name="Page-1">
    <mxGraphModel dx="946" dy="536" grid="1" gridSize="10" guides="1" tooltips="1" connect="1" arrows="1" fold="1" page="1" pageScale="1" pageWidth="827" pageHeight="1169" math="0" shadow="0">
      <root>
        <mxCell id="0" />
        <mxCell id="1" parent="0" />
        <mxCell id="2s92CeDWljzN82kUPrto-8" style="edgeStyle=orthogonalEdgeStyle;rounded=0;orthogonalLoop=1;jettySize=auto;html=1;exitX=1;exitY=0.5;exitDx=0;exitDy=0;entryX=0;entryY=0.5;entryDx=0;entryDy=0;" edge="1" parent="1" source="2s92CeDWljzN82kUPrto-1" target="2s92CeDWljzN82kUPrto-4">
          <mxGeometry relative="1" as="geometry" />
        </mxCell>
        <mxCell id="2s92CeDWljzN82kUPrto-1" value="XML资源" style="rounded=1;whiteSpace=wrap;html=1;fillColor=#f5f5f5;strokeColor=#666666;fontColor=#333333;" vertex="1" parent="1">
          <mxGeometry x="110" y="140" width="120" height="60" as="geometry" />
        </mxCell>
        <mxCell id="2s92CeDWljzN82kUPrto-9" style="edgeStyle=orthogonalEdgeStyle;rounded=0;orthogonalLoop=1;jettySize=auto;html=1;exitX=1;exitY=0.5;exitDx=0;exitDy=0;entryX=0;entryY=0.5;entryDx=0;entryDy=0;" edge="1" parent="1" source="2s92CeDWljzN82kUPrto-2" target="2s92CeDWljzN82kUPrto-6">
          <mxGeometry relative="1" as="geometry" />
        </mxCell>
        <mxCell id="2s92CeDWljzN82kUPrto-2" value="Properties资源" style="rounded=1;whiteSpace=wrap;html=1;fillColor=#f5f5f5;strokeColor=#666666;fontColor=#333333;" vertex="1" parent="1">
          <mxGeometry x="110" y="250" width="120" height="60" as="geometry" />
        </mxCell>
        <mxCell id="2s92CeDWljzN82kUPrto-10" style="edgeStyle=orthogonalEdgeStyle;rounded=0;orthogonalLoop=1;jettySize=auto;html=1;exitX=1;exitY=0.5;exitDx=0;exitDy=0;" edge="1" parent="1" source="2s92CeDWljzN82kUPrto-3" target="2s92CeDWljzN82kUPrto-7">
          <mxGeometry relative="1" as="geometry" />
        </mxCell>
        <mxCell id="2s92CeDWljzN82kUPrto-3" value="Java注解" style="rounded=1;whiteSpace=wrap;html=1;fillColor=#f5f5f5;strokeColor=#666666;fontColor=#333333;" vertex="1" parent="1">
          <mxGeometry x="110" y="370" width="120" height="60" as="geometry" />
        </mxCell>
        <mxCell id="2s92CeDWljzN82kUPrto-11" style="rounded=0;orthogonalLoop=1;jettySize=auto;html=1;exitX=1;exitY=0.5;exitDx=0;exitDy=0;entryX=0;entryY=0.5;entryDx=0;entryDy=0;" edge="1" parent="1" source="2s92CeDWljzN82kUPrto-4" target="2s92CeDWljzN82kUPrto-5">
          <mxGeometry relative="1" as="geometry" />
        </mxCell>
        <mxCell id="2s92CeDWljzN82kUPrto-4" value="XmlBeanDefinitionReader" style="rounded=1;whiteSpace=wrap;html=1;fillColor=#dae8fc;strokeColor=#6c8ebf;" vertex="1" parent="1">
          <mxGeometry x="280" y="140" width="190" height="60" as="geometry" />
        </mxCell>
        <mxCell id="2s92CeDWljzN82kUPrto-5" value="&lt;pre&gt;BeanDefinitionRegistry&lt;/pre&gt;" style="rounded=1;whiteSpace=wrap;html=1;fillColor=#d5e8d4;strokeColor=#82b366;" vertex="1" parent="1">
          <mxGeometry x="540" y="250" width="190" height="60" as="geometry" />
        </mxCell>
        <mxCell id="2s92CeDWljzN82kUPrto-12" style="edgeStyle=none;rounded=0;orthogonalLoop=1;jettySize=auto;html=1;exitX=1;exitY=0.5;exitDx=0;exitDy=0;entryX=0;entryY=0.5;entryDx=0;entryDy=0;" edge="1" parent="1" source="2s92CeDWljzN82kUPrto-6" target="2s92CeDWljzN82kUPrto-5">
          <mxGeometry relative="1" as="geometry" />
        </mxCell>
        <mxCell id="2s92CeDWljzN82kUPrto-6" value="PropertiesBeanDefinitionReader" style="rounded=1;whiteSpace=wrap;html=1;fillColor=#dae8fc;strokeColor=#6c8ebf;" vertex="1" parent="1">
          <mxGeometry x="280" y="250" width="190" height="60" as="geometry" />
        </mxCell>
        <mxCell id="2s92CeDWljzN82kUPrto-13" style="edgeStyle=none;rounded=0;orthogonalLoop=1;jettySize=auto;html=1;exitX=1;exitY=0.5;exitDx=0;exitDy=0;entryX=0;entryY=0.5;entryDx=0;entryDy=0;" edge="1" parent="1" source="2s92CeDWljzN82kUPrto-7" target="2s92CeDWljzN82kUPrto-5">
          <mxGeometry relative="1" as="geometry" />
        </mxCell>
        <mxCell id="2s92CeDWljzN82kUPrto-7" value="AnnotatedBeanDefinitionReader" style="rounded=1;whiteSpace=wrap;html=1;fillColor=#dae8fc;strokeColor=#6c8ebf;" vertex="1" parent="1">
          <mxGeometry x="280" y="370" width="190" height="60" as="geometry" />
        </mxCell>
      </root>
    </mxGraphModel>
  </diagram>
</mxfile>
